<?xml version="1.0" standalone="no"?>
<!DOCTYPE svg PUBLIC "-//W3C//DTD SVG 20010904//EN"
 "http://www.w3.org/TR/2001/REC-SVG-20010904/DTD/svg10.dtd">
<svg version="1.0" xmlns="http://www.w3.org/2000/svg"
 width="1024.000000pt" height="1024.000000pt" viewBox="0 0 1024.000000 1024.000000"
 preserveAspectRatio="xMidYMid meet">

<g transform="translate(0.000000,1024.000000) scale(0.100000,-0.100000)"
fill="#000000" stroke="none">
<path d="M2997 7902 c-23 -25 -21 -74 4 -123 19 -38 109 -367 448 -1644 274
-1031 353 -1321 367 -1342 20 -31 74 -31 108 0 14 12 112 155 216 317 105 162
196 298 204 302 7 4 20 2 28 -5 8 -7 104 -140 213 -297 109 -157 219 -314 243
-349 53 -75 91 -95 169 -89 45 4 68 15 170 83 240 160 254 175 254 272 0 40
-5 64 -19 82 -10 14 -93 132 -184 261 -91 129 -195 277 -231 329 -37 51 -67
100 -67 107 0 7 10 20 23 28 12 7 177 42 367 76 190 34 360 68 377 76 42 17
61 54 45 89 -8 17 -252 185 -746 513 -665 443 -1039 698 -1584 1078 -275 191
-368 254 -379 254 -6 0 -17 -8 -26 -18z m501 -498 c86 -58 337 -225 557 -371
751 -498 835 -556 828 -566 -3 -6 -1 -7 6 -3 11 7 128 -69 379 -247 71 -50
112 -86 112 -97 0 -19 -20 -31 -48 -29 -10 1 -7 4 7 8 35 9 36 26 4 50 -79 61
-152 111 -162 111 -6 0 -11 5 -11 10 0 6 -5 10 -11 10 -5 0 -7 -5 -3 -12 4 -7
3 -8 -5 -4 -6 4 -9 11 -6 16 3 5 -3 14 -14 19 -14 8 -20 7 -25 -4 -3 -8 -11
-15 -18 -15 -9 0 -8 3 2 10 8 5 11 10 5 10 -5 0 -3 5 5 10 8 5 10 10 4 10 -6
0 -21 9 -34 20 -13 11 -28 20 -34 20 -6 0 -4 -6 4 -13 15 -12 23 -60 8 -51 -4
3 -8 14 -8 24 0 21 -20 38 -21 18 0 -7 -4 -4 -8 7 -5 11 -13 21 -20 21 -6 1
-21 2 -33 3 l-23 2 24 10 c19 8 21 12 11 24 -7 9 -15 13 -19 10 -3 -3 0 -10 8
-14 9 -6 7 -10 -9 -14 -14 -4 -30 1 -43 14 -11 10 -25 19 -29 19 -5 0 -6 4 -3
10 4 6 -1 7 -10 3 -14 -5 -11 -10 14 -25 17 -11 31 -22 31 -25 0 -2 -4 -1 -10
2 -5 3 -10 1 -10 -4 0 -6 7 -11 15 -11 8 0 15 -5 15 -11 0 -6 8 -8 20 -4 23 7
63 -12 55 -26 -4 -5 4 -9 17 -10 13 0 17 -3 10 -6 -10 -4 -6 -11 13 -23 24
-16 25 -18 10 -34 -17 -17 -35 -13 -35 7 0 8 3 8 9 -2 6 -8 11 -9 15 -3 4 6
-4 20 -16 31 -23 22 -44 29 -33 11 4 -6 -1 -7 -11 -3 -11 4 -13 8 -6 11 7 2
12 11 12 20 0 15 -2 15 -11 2 -9 -13 -10 -12 -5 3 3 10 0 17 -8 17 -10 0 -13
-11 -10 -37 2 -28 1 -34 -7 -23 -7 11 -8 7 -5 -15 2 -16 5 -30 6 -30 6 0 6
-36 0 -40 -5 -3 -7 3 -5 12 1 10 0 23 -4 28 -11 19 -11 48 -1 60 8 10 8 15 -1
20 -6 4 -15 1 -20 -6 -7 -11 -9 -11 -9 -1 0 7 -5 10 -11 7 -7 -5 -4 -14 8 -28
17 -21 17 -21 0 -8 -16 13 -18 12 -13 -12 6 -32 -4 -35 -24 -6 -8 11 -29 29
-47 40 -22 14 -30 25 -26 38 3 10 -1 22 -8 26 -8 5 -10 4 -5 -3 5 -8 -1 -12
-16 -13 l-23 -2 23 -4 c12 -2 20 -8 17 -13 -6 -9 43 -60 57 -60 5 0 8 -5 8
-11 0 -13 -55 25 -95 65 -16 17 -32 31 -35 31 -3 0 -4 4 -2 8 1 5 -3 7 -10 4
-7 -2 -29 10 -48 27 -20 17 -48 40 -62 50 -15 11 -25 23 -22 27 2 4 -1 11 -7
15 -8 4 -9 3 -5 -4 4 -7 4 -12 1 -12 -3 0 -90 66 -193 147 -316 248 -415 326
-496 388 -43 33 -116 89 -161 125 -145 116 -346 263 -351 258 -2 -3 14 -74 37
-157 22 -84 39 -155 36 -157 -5 -6 -107 378 -107 405 0 11 5 21 11 21 6 0 81
-48 167 -106z m-61 -356 c-3 -8 -6 -5 -6 6 -1 11 2 17 5 13 3 -3 4 -12 1 -19z
m30 -120 c-3 -8 -6 -5 -6 6 -1 11 2 17 5 13 3 -3 4 -12 1 -19z m1499 -657 c-4
-5 0 -12 6 -14 8 -3 6 -6 -4 -6 -18 -1 -24 10 -11 22 9 10 15 8 9 -2z m174
-26 c0 -18 -26 -20 -36 -3 -5 8 -2 9 9 5 10 -3 17 -2 17 3 0 6 2 10 5 10 3 0
5 -7 5 -15z m-259 -13 c-7 -2 -18 1 -23 6 -8 8 -4 9 13 5 13 -4 18 -8 10 -11z
m125 6 c4 -6 3 -8 -4 -4 -6 3 -18 -1 -26 -10 -9 -8 -16 -11 -16 -5 0 5 8 15
18 20 21 13 20 13 28 -1z m58 -6 c3 -5 -1 -9 -9 -9 -8 0 -12 4 -9 9 3 4 7 8 9
8 2 0 6 -4 9 -8z m-89 -54 c5 4 5 1 1 -6 -6 -10 -11 -10 -22 -1 -8 6 -14 14
-14 16 0 3 6 0 13 -6 8 -6 18 -7 22 -3z m256 -104 c-46 -8 -86 -12 -88 -10 -6
6 95 24 137 24 19 0 -3 -6 -49 -14z m-134 -20 c-3 -3 -12 -4 -19 -1 -8 3 -5 6
6 6 11 1 17 -2 13 -5z"/>
<path d="M4797 6509 c7 -7 15 -10 18 -7 3 3 -2 9 -12 12 -14 6 -15 5 -6 -5z"/>
<path d="M4671 6493 c7 -12 15 -20 18 -17 3 2 -3 12 -13 22 -17 16 -18 16 -5
-5z"/>
<path d="M4850 6480 c0 -5 5 -10 11 -10 5 0 7 5 4 10 -3 6 -8 10 -11 10 -2 0
-4 -4 -4 -10z"/>
<path d="M4798 6436 c-5 -25 7 -46 27 -46 5 0 3 5 -6 10 -11 6 -15 18 -11 35
2 14 2 25 -1 25 -2 0 -7 -11 -9 -24z"/>
<path d="M4920 6430 c0 -5 5 -10 11 -10 5 0 7 5 4 10 -3 6 -8 10 -11 10 -2 0
-4 -4 -4 -10z"/>
<path d="M4680 6416 c0 -8 4 -17 9 -20 5 -4 7 3 4 14 -6 23 -13 26 -13 6z"/>
<path d="M4728 6423 c6 -2 10 -8 8 -12 -3 -4 1 -8 8 -8 8 0 12 6 9 14 -3 7
-13 13 -22 12 -10 0 -11 -2 -3 -6z"/>
<path d="M4820 6419 c0 -5 5 -7 10 -4 6 3 10 8 10 11 0 2 -4 4 -10 4 -5 0 -10
-5 -10 -11z"/>
<path d="M4839 6371 c-6 -17 -16 -31 -22 -31 -7 0 -7 4 1 12 16 16 15 25 -3
25 -8 0 -13 -2 -10 -5 2 -3 0 -13 -6 -23 -7 -15 -6 -19 6 -19 8 0 15 -5 15
-12 0 -6 3 -9 6 -5 3 3 16 -6 28 -20 20 -23 22 -24 22 -5 0 11 -4 18 -8 16 -4
-3 -13 7 -18 22 -13 33 2 56 22 36 10 -10 10 -15 -1 -21 -9 -6 -10 -11 -2 -15
6 -4 14 0 17 9 5 12 9 13 14 5 5 -9 9 -9 14 -1 4 6 -4 15 -18 21 -15 5 -25 15
-24 21 7 27 -23 18 -33 -10z"/>
<path d="M4984 6378 c-4 -7 -4 -10 1 -6 4 4 14 3 22 -4 7 -6 16 -8 19 -5 3 3
-3 10 -15 16 -15 8 -22 8 -27 -1z"/>
<path d="M3930 7825 c-5 -14 -10 -84 -10 -155 0 -107 3 -129 16 -134 31 -12
164 -7 169 7 7 22 13 287 6 291 -3 2 -43 7 -88 10 l-83 7 -10 -26z"/>
<path d="M4433 7593 c-22 -8 -163 -191 -163 -211 0 -21 91 -112 112 -112 13 0
89 76 156 157 l42 51 -55 53 c-63 60 -75 68 -92 62z"/>
<path d="M1400 4184 c-183 -39 -346 -187 -400 -362 -25 -80 -27 -218 -4 -306
37 -144 140 -269 279 -337 90 -44 155 -59 257 -59 187 0 363 101 444 255 56
105 59 100 -58 103 l-101 3 -44 -50 c-28 -32 -67 -61 -109 -82 -55 -28 -76
-32 -137 -32 -97 1 -172 30 -235 91 -68 67 -94 128 -100 233 -4 74 -1 93 20
146 57 141 166 214 317 214 62 0 84 -4 137 -31 37 -18 79 -49 103 -76 l39 -45
112 3 111 3 -36 72 c-103 206 -346 311 -595 257z"/>
<path d="M2540 4189 c-48 -10 -80 -50 -80 -101 0 -32 7 -47 34 -74 46 -46 101
-48 148 -5 28 25 33 36 33 75 0 36 -6 51 -28 74 -33 34 -57 41 -107 31z"/>
<path d="M6649 4171 c-24 -24 -29 -38 -29 -76 0 -40 5 -52 34 -81 24 -24 43
-34 65 -34 107 0 156 116 81 192 -23 23 -37 28 -75 28 -38 0 -52 -5 -76 -29z"/>
<path d="M2120 3665 l0 -525 100 0 100 0 0 525 0 525 -100 0 -100 0 0 -525z"/>
<path d="M3570 3665 l0 -525 100 0 100 0 0 187 0 186 140 -186 140 -187 111 0
110 0 -23 33 c-12 17 -78 108 -147 201 -111 152 -123 171 -111 189 6 11 51 70
99 131 48 61 97 126 110 144 l22 32 -109 0 -109 0 -114 -147 -114 -148 -3 308
-2 307 -100 0 -100 0 0 -525z"/>
<path d="M4370 3666 l0 -526 105 0 105 0 0 190 0 190 69 0 68 0 102 -182 c57
-101 106 -187 110 -191 4 -4 55 -6 112 -5 l105 3 -107 200 -107 199 48 28
c113 65 167 170 157 306 -10 134 -84 236 -206 283 -51 20 -78 23 -308 27
l-253 4 0 -526z m479 316 c56 -28 76 -64 76 -137 0 -49 -5 -70 -21 -92 -40
-53 -70 -63 -203 -66 l-121 -2 0 158 0 157 118 0 c92 0 124 -4 151 -18z"/>
<path d="M3031 3875 c-66 -21 -145 -80 -185 -138 -50 -74 -69 -152 -64 -251
10 -156 78 -265 206 -328 61 -30 74 -33 162 -33 84 0 102 3 152 28 61 30 139
100 163 148 l15 28 -77 40 -76 40 -38 -43 c-48 -55 -84 -70 -153 -64 -101 8
-166 90 -166 205 1 126 72 203 187 203 70 0 130 -38 169 -108 3 -6 154 67 154
75 -1 24 -82 122 -123 150 -90 60 -224 80 -326 48z"/>
<path d="M5390 3868 c-77 -30 -160 -114 -189 -192 -77 -207 7 -450 183 -527
78 -34 212 -38 291 -8 61 23 165 112 165 141 0 8 -28 29 -63 48 l-64 34 -39
-32 c-110 -88 -261 -47 -299 81 l-14 47 255 0 256 0 -7 68 c-17 170 -77 271
-198 334 -63 33 -202 36 -277 6z m210 -160 c40 -28 67 -63 76 -100 l6 -28
-162 0 -161 0 6 23 c34 111 149 163 235 105z"/>
<path d="M7130 3868 c-77 -30 -160 -114 -189 -193 -78 -207 8 -448 187 -528
58 -25 191 -35 259 -18 64 16 139 66 174 114 34 46 32 51 -44 91 l-54 29 -50
-35 c-110 -76 -236 -51 -284 56 -37 81 -50 76 231 76 l250 0 0 50 c0 101 -37
209 -94 277 -14 16 -53 45 -88 63 -56 30 -73 34 -153 37 -74 3 -100 -1 -145
-19z m204 -152 c38 -16 73 -61 82 -105 l7 -31 -161 0 -161 0 11 33 c34 100
126 143 222 103z"/>
<path d="M8906 3875 c-50 -18 -82 -41 -120 -89 -25 -30 -31 -48 -34 -99 -7
-125 60 -193 239 -242 144 -40 179 -79 126 -141 -48 -56 -168 -40 -205 27 -14
23 -22 28 -42 25 -14 -3 -51 -8 -82 -12 -33 -3 -58 -11 -58 -18 0 -27 50 -114
78 -138 49 -41 133 -68 211 -68 218 0 348 161 265 328 -30 61 -91 105 -174
128 -132 35 -160 46 -175 67 -21 30 -19 44 10 72 43 44 164 26 181 -27 6 -20
32 -22 122 -12 61 8 63 15 25 85 -48 90 -128 129 -257 129 -39 -1 -89 -7 -110
-15z"/>
<path d="M2470 3505 l0 -365 100 0 100 0 0 365 0 365 -100 0 -100 0 0 -365z"/>
<path d="M5852 3858 c3 -7 65 -172 138 -365 l134 -353 91 0 91 0 119 323 c65
177 127 341 137 365 l18 43 -102 -3 -101 -3 -83 -245 c-45 -135 -84 -238 -87
-230 -3 8 -41 120 -84 247 l-78 233 -99 0 c-74 0 -97 -3 -94 -12z"/>
<path d="M6630 3505 l0 -365 100 0 100 0 0 365 0 365 -100 0 -100 0 0 -365z"/>
<path d="M7620 3863 c0 -5 51 -169 112 -366 l113 -357 89 2 89 3 74 229 c40
126 75 231 76 233 2 1 37 -103 78 -232 l74 -235 87 0 86 0 11 33 c122 390 211
680 211 690 0 4 -42 7 -93 7 l-93 0 -53 -189 c-29 -104 -60 -213 -68 -242
l-16 -53 -37 125 c-21 68 -54 177 -74 242 l-37 118 -77 -3 -76 -3 -71 -225
c-39 -124 -73 -231 -76 -238 -4 -11 -52 149 -131 436 l-9 32 -94 0 c-52 0 -95
-3 -95 -7z"/>
</g>
</svg>
